HIERARCHY
ROOT hip
{
	OFFSET 0.000000 0.000000 0.000000 
	CHANNELS 6 Xposition Yposition Zposition Zrotation Yrotation Xrotation
	JOINT abdomen
	{
		OFFSET 0.000000 20.688101 -0.731520 
		CHANNELS 3 Zrotation Xrotation Yrotation
		JOINT chest
		{
			OFFSET 0.000000 11.704300 -0.487680 
			CHANNELS 3 Zrotation Xrotation Yrotation
			JOINT neck
			{
				OFFSET 0.000000 22.189400 -2.194560 
				CHANNELS 3 Zrotation Xrotation Yrotation
				JOINT head
				{
					OFFSET -0.243840 7.071330 1.219200 
					CHANNELS 3 Zrotation Xrotation Yrotation
					JOINT leftEye
					{
						OFFSET 4.145280 8.046740 8.046720 
						CHANNELS 3 Zrotation Xrotation Yrotation
						End Site
						{
							OFFSET 1.000000 0.000000 0.000000 
						}
					}
					JOINT rightEye
					{
						OFFSET -3.657600 8.046740 8.046720 
						CHANNELS 3 Zrotation Xrotation Yrotation
						End Site
						{
							OFFSET 1.000000 0.000000 0.000000 
						}
					}
				}
			}
			JOINT rCollar
			{
				OFFSET -2.682240 19.263399 -4.876800 
				CHANNELS 3 Zrotation Xrotation Yrotation
				JOINT rShldr
				{
					OFFSET -8.778240 -1.950730 1.463040 
					CHANNELS 3 Zrotation Xrotation Yrotation
					JOINT rForeArm
					{
						OFFSET -28.174200 -1.711500 0.487680 
						CHANNELS 3 Zrotation Xrotation Yrotation
						JOINT rHand
						{
							OFFSET -22.587900 0.773209 7.071360 
							CHANNELS 3 Zrotation Xrotation Yrotation
							JOINT rThumb1
							{
								OFFSET -1.219200 -0.487915 3.413760 
								CHANNELS 3 Zrotation Xrotation Yrotation
								JOINT rThumb2
								{
									OFFSET -3.370350 -0.524490 3.413760 
									CHANNELS 3 Zrotation Xrotation Yrotation
									End Site
									{
										OFFSET -1.782710 -1.182140 1.430490 
									}
								}
							}
							JOINT rIndex1
							{
								OFFSET -7.759470 0.938293 5.608320 
								CHANNELS 3 Zrotation Xrotation Yrotation
								JOINT rIndex2
								{
									OFFSET -2.540570 -0.884171 1.565380 
									CHANNELS 3 Zrotation Xrotation Yrotation
									End Site
									{
										OFFSET -1.625190 -0.234802 1.165020 
									}
								}
							}
							JOINT rMid1
							{
								OFFSET -8.247140 1.182130 3.413760 
								CHANNELS 3 Zrotation Xrotation Yrotation
								JOINT rMid2
								{
									OFFSET -3.101650 -0.590103 1.064700 
									CHANNELS 3 Zrotation Xrotation Yrotation
									End Site
									{
										OFFSET -2.485470 -0.328903 0.837420 
									}
								}
							}
							JOINT rRing1
							{
								OFFSET -8.828220 0.546677 1.516780 
								CHANNELS 3 Zrotation Xrotation Yrotation
								JOINT rRing2
								{
									OFFSET -2.609340 -0.819778 -0.019849 
									CHANNELS 3 Zrotation Xrotation Yrotation
									End Site
									{
										OFFSET -2.338420 -0.294052 0.168128 
									}
								}
							}
							JOINT rPinky1
							{
								OFFSET -8.272020 -0.047791 -0.458400 
								CHANNELS 3 Zrotation Xrotation Yrotation
								JOINT rPinky2
								{
									OFFSET -1.827340 -0.647385 -0.700984 
									CHANNELS 3 Zrotation Xrotation Yrotation
									End Site
									{
										OFFSET -1.692250 -0.517670 -0.607171 
									}
								}
							}
						}
					}
				}
			}
			JOINT lCollar
			{
				OFFSET 2.682240 19.263399 -4.876800 
				CHANNELS 3 Zrotation Xrotation Yrotation
				JOINT lShldr
				{
					OFFSET 8.778240 -1.950730 1.463040 
					CHANNELS 3 Zrotation Xrotation Yrotation
					JOINT lForeArm
					{
						OFFSET 28.174200 -1.711500 0.487680 
						CHANNELS 3 Zrotation Xrotation Yrotation
						JOINT lHand
						{
							OFFSET 22.587900 0.773209 7.071360 
							CHANNELS 3 Zrotation Xrotation Yrotation
							JOINT lThumb1
							{
								OFFSET 1.219200 -0.487915 3.413760 
								CHANNELS 3 Zrotation Xrotation Yrotation
								JOINT lThumb2
								{
									OFFSET 3.370350 -0.524490 3.413760 
									CHANNELS 3 Zrotation Xrotation Yrotation
									End Site
									{
										OFFSET 1.782710 -1.182140 1.430490 
									}
								}
							}
							JOINT lIndex1
							{
								OFFSET 7.759470 0.938293 5.608320 
								CHANNELS 3 Zrotation Xrotation Yrotation
								JOINT lIndex2
								{
									OFFSET 2.540570 -0.884171 1.565380 
									CHANNELS 3 Zrotation Xrotation Yrotation
									End Site
									{
										OFFSET 1.625190 -0.234802 1.165020 
									}
								}
							}
							JOINT lMid1
							{
								OFFSET 8.247140 1.182130 3.413760 
								CHANNELS 3 Zrotation Xrotation Yrotation
								JOINT lMid2
								{
									OFFSET 3.101650 -0.590103 1.064700 
									CHANNELS 3 Zrotation Xrotation Yrotation
									End Site
									{
										OFFSET 2.485470 -0.328903 0.837420 
									}
								}
							}
							JOINT lRing1
							{
								OFFSET 8.828220 0.546677 1.516780 
								CHANNELS 3 Zrotation Xrotation Yrotation
								JOINT lRing2
								{
									OFFSET 2.609340 -0.819778 -0.019849 
									CHANNELS 3 Zrotation Xrotation Yrotation
									End Site
									{
										OFFSET 2.338420 -0.294052 0.168128 
									}
								}
							}
							JOINT lPinky1
							{
								OFFSET 8.272020 -0.047791 -0.458400 
								CHANNELS 3 Zrotation Xrotation Yrotation
								JOINT lPinky2
								{
									OFFSET 1.827340 -0.647385 -0.700984 
									CHANNELS 3 Zrotation Xrotation Yrotation
									End Site
									{
										OFFSET 1.692250 -0.517670 -0.607171 
									}
								}
							}
						}
					}
				}
			}
		}
	}
	JOINT rButtock
	{
		OFFSET -8.778240 4.350840 1.219200 
		CHANNELS 3 Zrotation Xrotation Yrotation
		JOINT rThigh
		{
			OFFSET 0.000000 -1.706870 -2.194560 
			CHANNELS 3 Zrotation Xrotation Yrotation
			JOINT rShin
			{
				OFFSET 0.000000 -36.819901 0.731520 
				CHANNELS 3 Zrotation Xrotation Yrotation
				JOINT rFoot
				{
					OFFSET 0.731520 -45.110401 -5.120640 
					CHANNELS 3 Zrotation Xrotation Yrotation
					End Site
					{
						OFFSET -1.122100 -3.699640 12.103000 
					}
				}
			}
		}
	}
	JOINT lButtock
	{
		OFFSET 8.778240 4.350840 1.219200 
		CHANNELS 3 Zrotation Xrotation Yrotation
		JOINT lThigh
		{
			OFFSET 0.000000 -1.706870 -2.194560 
			CHANNELS 3 Zrotation Xrotation Yrotation
			JOINT lShin
			{
				OFFSET 0.000000 -36.819901 0.731520 
				CHANNELS 3 Zrotation Xrotation Yrotation
				JOINT lFoot
				{
					OFFSET -0.731520 -45.110401 -5.120640 
					CHANNELS 3 Zrotation Xrotation Yrotation
					End Site
					{
						OFFSET 1.122100 -3.699640 12.103000 
					}
				}
			}
		}
	}
}
MOTION
Frames: 9
Frame Time: 0.040000
0.000000 0.000000 -190.000000 0.000000 0.000000 0.000000 -6.491800 12.077600 -1.477500 -0.010200 -0.011800 0.050000 -7.905300 3.352400 -6.936000 14.341300 2.995300 -13.606000 0.000000 0.000000 0.000000 0.000000 0.000000 0.000000 0.000000 0.000000 0.000000 32.886700 -1.272400 14.438100 -27.366100 -16.717600 47.249298 2.318100 -87.672699 11.950600 0.000000 0.000000 0.000000 0.000000 0.000000 0.000000 0.000000 0.000000 0.000000 0.023500 0.013400 0.013600 0.000000 0.000000 0.000000 0.029900 0.008500 0.015800 0.000000 0.000000 0.000000 0.015400 0.020800 0.035100 0.000000 0.000000 0.000000 0.027600 -0.022200 -0.029300 0.000000 0.000000 0.000000 -75.246803 18.753799 11.230000 13.981900 -7.787700 -19.405701 -10.368000 4.230300 -13.058400 0.000000 0.000000 0.000000 0.000000 0.000000 0.000000 0.000000 0.000000 0.000000 -0.013200 0.006100 -0.005200 0.000000 0.000000 0.000000 -0.032800 0.030100 -0.004900 0.000000 0.000000 0.000000 -0.030000 0.004100 -0.032400 0.000000 0.000000 0.000000 -0.003800 -0.018400 0.013800 0.000000 0.000000 0.000000 1.551200 11.859600 8.247800 -1.311300 26.416000 -3.648800 -1.364100 -9.238800 -7.597000 0.000000 0.000000 0.000000 2.390700 -9.332300 -16.893499 7.377800 37.107300 -0.471000 4.186600 -16.169201 15.905900 
0.000000 0.000000 -190.000000 0.000000 0.000000 0.000000 -6.708400 12.202300 -1.470800 -0.010200 -0.011800 0.050000 -8.100600 3.357300 -6.554400 13.176500 2.885800 -12.875000 0.000000 0.000000 0.000000 0.000000 0.000000 0.000000 0.000000 0.000000 0.000000 46.519699 -0.161200 7.185400 -28.290899 -33.262001 69.100197 2.179800 -99.879204 11.405500 0.000000 0.000000 0.000000 0.000000 0.000000 0.000000 0.000000 0.000000 0.000000 0.023500 0.013400 0.013600 0.000000 0.000000 0.000000 0.029900 0.008500 0.015800 0.000000 0.000000 0.000000 0.015400 0.020800 0.035100 0.000000 0.000000 0.000000 0.027600 -0.022200 -0.029300 0.000000 0.000000 0.000000 -75.394203 18.827900 11.656000 14.345800 -7.485500 -19.654499 -10.041300 3.260500 -12.489100 0.000000 0.000000 0.000000 0.000000 0.000000 0.000000 0.000000 0.000000 0.000000 -0.013200 0.006100 -0.005200 0.000000 0.000000 0.000000 -0.032800 0.030100 -0.004900 0.000000 0.000000 0.000000 -0.030000 0.004100 -0.032400 0.000000 0.000000 0.000000 -0.003800 -0.018400 0.013800 0.000000 0.000000 0.000000 1.490600 13.270400 8.745100 -1.551500 27.078501 -3.626900 -1.327700 -9.149400 -7.413000 0.000000 0.000000 0.000000 1.811900 -9.512500 -15.965600 7.225400 37.606899 -0.415300 4.155800 -16.160400 15.267100 
0.000000 0.000000 -190.000000 0.000000 0.000000 0.000000 -4.484900 11.137600 -0.621600 -0.010200 -0.011800 0.050000 -10.547700 3.730500 -6.700200 14.036300 2.222900 -13.127800 0.000000 0.000000 0.000000 0.000000 0.000000 0.000000 0.000000 0.000000 0.000000 46.975601 -0.186100 19.773600 -28.739300 -35.314602 76.523300 1.861400 -83.473503 9.780700 0.000000 0.000000 0.000000 0.000000 0.000000 0.000000 0.000000 0.000000 0.000000 0.023500 0.013400 0.013600 0.000000 0.000000 0.000000 0.029900 0.008500 0.015800 0.000000 0.000000 0.000000 0.015400 0.020800 0.035100 0.000000 0.000000 0.000000 0.027600 -0.022200 -0.029300 0.000000 0.000000 0.000000 -75.602798 19.156401 12.167100 14.759700 -7.148800 -20.761999 -8.935400 1.092400 -10.896900 0.000000 0.000000 0.000000 0.000000 0.000000 0.000000 0.000000 0.000000 0.000000 -0.013200 0.006100 -0.005200 0.000000 0.000000 0.000000 -0.032800 0.030100 -0.004900 0.000000 0.000000 0.000000 -0.030000 0.004100 -0.032400 0.000000 0.000000 0.000000 -0.003800 -0.018400 0.013800 0.000000 0.000000 0.000000 -0.407000 2.660700 5.649300 -0.755000 22.696400 -3.205800 -1.504100 -9.044000 -7.259000 0.000000 0.000000 0.000000 1.455700 -11.507600 -13.272600 6.243700 37.815800 -0.546700 3.710100 -15.308800 13.205600 
0.000000 0.000000 -190.000000 0.000000 0.000000 0.000000 -4.125500 11.100200 -0.580400 -0.010200 -0.011800 0.050000 -10.122300 3.583300 -5.447800 13.906100 2.140300 -10.859200 0.000000 0.000000 0.000000 0.000000 0.000000 0.000000 0.000000 0.000000 0.000000 47.826599 17.251101 24.144199 -28.593201 -36.302101 76.486801 2.282300 -27.025600 9.165400 0.000000 0.000000 0.000000 0.000000 0.000000 0.000000 0.000000 0.000000 0.000000 0.023500 0.013400 0.013600 0.000000 0.000000 0.000000 0.029900 0.008500 0.015800 0.000000 0.000000 0.000000 0.015400 0.020800 0.035100 0.000000 0.000000 0.000000 0.027600 -0.022200 -0.029300 0.000000 0.000000 0.000000 -75.524597 19.590900 11.611700 14.781700 -7.064000 -20.215599 -8.737200 -0.444200 -10.110100 0.000000 0.000000 0.000000 0.000000 0.000000 0.000000 0.000000 0.000000 0.000000 -0.013200 0.006100 -0.005200 0.000000 0.000000 0.000000 -0.032800 0.030100 -0.004900 0.000000 0.000000 0.000000 -0.030000 0.004100 -0.032400 0.000000 0.000000 0.000000 -0.003800 -0.018400 0.013800 0.000000 0.000000 0.000000 -0.886800 -3.932500 5.797800 -0.493300 17.176399 -3.198600 -1.585200 -9.201500 -7.362000 0.000000 0.000000 0.000000 -3.957900 -15.148100 -19.426600 6.167900 36.130699 -0.611800 3.359100 -13.563200 10.198300 
0.000000 0.000000 -190.000000 0.000000 0.000000 0.000000 -5.364900 11.064100 -0.212000 -0.010200 -0.011800 0.049900 -10.499500 3.573600 -5.097700 13.681500 2.184000 -9.049400 0.000000 0.000000 0.000000 0.000000 0.000000 0.000000 0.000000 0.000000 0.000000 48.012001 31.439800 27.459200 -29.428900 -38.198502 83.518600 2.506300 -23.891399 7.652500 0.000000 0.000000 0.000000 0.000000 0.000000 0.000000 0.000000 0.000000 0.000000 0.023500 0.013400 0.013600 0.000000 0.000000 0.000000 0.029900 0.008500 0.015800 0.000000 0.000000 0.000000 0.015400 0.020800 0.035100 0.000000 0.000000 0.000000 0.027600 -0.022200 -0.029300 0.000000 0.000000 0.000000 -74.816597 24.276100 11.300200 15.091000 -6.580200 -22.525600 -8.019800 -1.072700 -9.363300 0.000000 0.000000 0.000000 0.000000 0.000000 0.000000 0.000000 0.000000 0.000000 -0.013200 0.006100 -0.005200 0.000000 0.000000 0.000000 -0.032800 0.030100 -0.004900 0.000000 0.000000 0.000000 -0.030000 0.004100 -0.032300 0.000000 0.000000 0.000000 -0.003800 -0.018400 0.013800 0.000000 0.000000 0.000000 -6.741500 -1.244400 0.326100 0.788500 10.103500 -3.042000 -1.731400 -9.425100 -7.722500 0.000000 0.000000 0.000000 -1.631300 -12.010800 -16.732401 5.906000 36.496201 -0.668800 3.290000 -13.083700 9.502800 
0.000000 0.000000 -190.000000 0.000000 0.000000 0.000000 -5.216600 10.809000 -0.027600 -0.010200 -0.011800 0.049800 -10.231500 3.696300 -5.399500 13.024600 2.299800 -11.123800 0.000000 0.000000 0.000000 0.000000 0.000000 0.000000 0.000000 0.000000 0.000000 48.943600 37.376999 38.296501 -29.508200 -36.883301 84.352699 2.883600 -40.369701 3.246800 0.000000 0.000000 0.000000 0.000000 0.000000 0.000000 0.000000 0.000000 0.000000 0.023500 0.013400 0.013600 0.000000 0.000000 0.000000 0.029800 0.008500 0.015700 0.000000 0.000000 0.000000 0.015400 0.020800 0.035000 0.000000 0.000000 0.000000 0.027500 -0.022200 -0.029200 0.000000 0.000000 0.000000 -76.987000 21.985701 15.340900 11.902900 -6.712900 -15.083700 -9.842100 0.251400 -11.345200 0.000000 0.000000 0.000000 0.000000 0.000000 0.000000 0.000000 0.000000 0.000000 -0.013200 0.006100 -0.005100 0.000000 0.000000 0.000000 -0.032700 0.030000 -0.004900 0.000000 0.000000 0.000000 -0.029900 0.004100 -0.032300 0.000000 0.000000 0.000000 -0.003800 -0.018400 0.013700 0.000000 0.000000 0.000000 -0.248400 0.874500 2.410500 0.847200 8.793800 -2.997900 -1.648600 -9.509500 -7.643000 0.000000 0.000000 0.000000 2.115700 -11.502300 -18.198200 6.028100 37.496799 -0.626100 3.385000 -13.213200 10.810300 
0.000000 0.000000 -190.000000 0.000000 0.000000 0.000000 -4.820600 10.971700 -0.048200 -0.010200 -0.011800 0.049900 -9.959000 3.755100 -4.982500 13.735600 2.197300 -9.532800 0.000000 0.000000 0.000000 0.000000 0.000000 0.000000 0.000000 0.000000 0.000000 38.973301 33.348598 37.033401 -28.045900 -19.309799 64.892998 3.140100 3.256600 7.994100 0.000000 0.000000 0.000000 0.000000 0.000000 0.000000 0.000000 0.000000 0.000000 0.023500 0.013400 0.013600 0.000000 0.000000 0.000000 0.029900 0.008500 0.015800 0.000000 0.000000 0.000000 0.015400 0.020800 0.035100 0.000000 0.000000 0.000000 0.027600 -0.022200 -0.029300 0.000000 0.000000 0.000000 -75.547302 20.616400 9.955800 14.593100 -6.834600 -19.679899 -8.639600 -0.816300 -9.570700 0.000000 0.000000 0.000000 0.000000 0.000000 0.000000 0.000000 0.000000 0.000000 -0.013200 0.006100 -0.005200 0.000000 0.000000 0.000000 -0.032800 0.030100 -0.004900 0.000000 0.000000 0.000000 -0.030000 0.004100 -0.032300 0.000000 0.000000 0.000000 -0.003800 -0.018400 0.013800 0.000000 0.000000 0.000000 -7.299900 -4.254000 -0.948100 1.194100 10.205900 -2.940900 -1.721900 -9.610500 -7.730300 0.000000 0.000000 0.000000 -1.606300 -11.657900 -18.662600 5.740700 35.971298 -0.681700 3.313000 -12.808600 9.700500 
0.000000 0.000000 -190.000000 0.000000 0.000000 0.000000 -7.173900 11.706100 -0.425900 -0.010200 -0.011800 0.049900 -7.952500 3.353900 -4.238900 13.931600 2.603300 -8.978600 0.000000 0.000000 0.000000 0.000000 0.000000 0.000000 0.000000 0.000000 0.000000 34.014301 36.793999 32.888699 -28.659401 -28.268900 70.413399 3.026800 -25.445101 6.268300 0.000000 0.000000 0.000000 0.000000 0.000000 0.000000 0.000000 0.000000 0.000000 0.023500 0.013400 0.013600 0.000000 0.000000 0.000000 0.029900 0.008500 0.015800 0.000000 0.000000 0.000000 0.015400 0.020800 0.035100 0.000000 0.000000 0.000000 0.027600 -0.022200 -0.029300 0.000000 0.000000 0.000000 -74.288803 20.055500 9.368600 14.562500 -7.123900 -19.324400 -8.788400 -0.079600 -10.367100 0.000000 0.000000 0.000000 0.000000 0.000000 0.000000 0.000000 0.000000 0.000000 -0.013200 0.006100 -0.005200 0.000000 0.000000 0.000000 -0.032800 0.030100 -0.004900 0.000000 0.000000 0.000000 -0.030000 0.004100 -0.032300 0.000000 0.000000 0.000000 -0.003800 -0.018400 0.013800 0.000000 0.000000 0.000000 -5.392400 7.162200 2.174900 0.722600 7.662600 -3.396100 -1.694700 -9.800000 -8.371400 0.000000 0.000000 0.000000 -1.557900 -10.803300 -22.485800 6.590400 35.078999 -0.477900 3.706500 -13.668300 10.968200 
0.000000 0.000000 -190.000000 0.000000 0.000000 0.000000 -7.339100 11.471100 -0.537000 -0.010200 -0.011800 0.049900 -8.047100 3.347400 -4.546800 13.955100 2.430400 -9.870400 0.000000 0.000000 0.000000 0.000000 0.000000 0.000000 0.000000 0.000000 0.000000 31.890400 31.303699 31.737101 -29.074600 -33.430599 77.323402 2.469200 -73.865303 6.354000 0.000000 0.000000 0.000000 0.000000 0.000000 0.000000 0.000000 0.000000 0.000000 0.023500 0.013400 0.013600 0.000000 0.000000 0.000000 0.029900 0.008500 0.015800 0.000000 0.000000 0.000000 0.015400 0.020800 0.035100 0.000000 0.000000 0.000000 0.027600 -0.022200 -0.029300 0.000000 0.000000 0.000000 -73.990997 19.871599 10.294700 14.722700 -7.301300 -20.124901 -8.440400 0.941000 -10.363900 0.000000 0.000000 0.000000 0.000000 0.000000 0.000000 0.000000 0.000000 0.000000 -0.013200 0.006100 -0.005200 0.000000 0.000000 0.000000 -0.032800 0.030100 -0.004900 0.000000 0.000000 0.000000 -0.030000 0.004100 -0.032300 0.000000 0.000000 0.000000 -0.003800 -0.018400 0.013800 0.000000 0.000000 0.000000 -1.631700 12.092600 4.215700 0.426200 7.195700 -3.450700 -1.729700 -9.702300 -8.371400 0.000000 0.000000 0.000000 -0.973400 -11.113600 -21.367100 6.875000 35.079899 -0.537200 3.703200 -14.239200 11.440700 
